<svg id="Layer_2" data-name="Layer 2" xmlns="http://www.w3.org/2000/svg" viewBox="0 0 453.75 453.75"><defs><style>.cls-1{fill:#eaeaea;}.cls-2{opacity:0.42;}.cls-3{fill:#fff;}.cls-4{fill:none;}</style></defs><title>default_image</title><rect class="cls-1" width="453.75" height="453.75"/><g class="cls-2"><path class="cls-3" d="M73.17,100.58V333.43h307.4V100.58ZM364.79,319.13H88.44V115.38H364.79Z"/><path class="cls-4" d="M88.44,115.38V319.13H364.79V115.38Zm76.64,43.92A19.07,19.07,0,1,1,146,178.36,19.06,19.06,0,0,1,165.08,159.3ZM141.93,275.38l57.88-66,19.06,21.45,38.47-52.43,63.66,97Z"/><path class="cls-4" d="M88.44,115.38V319.13H364.79V115.38Zm76.64,43.92A19.07,19.07,0,1,1,146,178.36,19.06,19.06,0,0,1,165.08,159.3ZM141.93,275.38l57.88-66,19.06,21.45,38.47-52.43,63.66,97Z"/><path class="cls-3" d="M184.15,178.36a19.07,19.07,0,1,1-19.07-19.06A19.07,19.07,0,0,1,184.15,178.36Z"/><polygon class="cls-3" points="321 275.38 141.93 275.38 199.81 209.34 218.87 230.79 257.34 178.36 321 275.38"/></g></svg>