<svg xmlns="http://www.w3.org/2000/svg" viewBox="0 0 127.81 53.24"><defs><style>.cls-1{fill:#efcb1d;}</style></defs><title>bikankyTitleHeader</title><g id="Layer_2" data-name="Layer 2"><g id="Layer_6" data-name="Layer 6"><path class="cls-1" d="M26.41,18.73a5.77,5.77,0,0,1-.59,2.51,11.77,11.77,0,0,1-1.48,2.31,16.44,16.44,0,0,1-1.92,2c-.69.61-1.31,1.13-1.87,1.55s-1.27,1-2.06,1.48S17,29.63,16.2,30a22.92,22.92,0,0,0-4.4,3.15A1.08,1.08,0,0,1,10,32.36c0-.69,2.24-2.65,3.69-3.45.7-.39,1.7-.93,3-1.72.62-.39,1.38-.91,2.26-1.55a25,25,0,0,0,2.51-2.06,14.79,14.79,0,0,0,2-2.31,4.17,4.17,0,0,0,.83-2.34c0-.29-.35-.6-1.06-.91a7.54,7.54,0,0,0-3-.47,15.83,15.83,0,0,0-4.13.59c-1.44.4-2.78.82-4,1.28s-2.28.89-3.17,1.28a6.91,6.91,0,0,1-1.62.59,24.73,24.73,0,0,0,.31,2.83c.57,3.94,2,9.26,1.95,9.71s-.2.79-.59.79q-.3,0-.66-.54a6.64,6.64,0,0,1-.74-1.28,40,40,0,0,1-1.87-6.2c-.28-1.41-.53-2.83-.74-4.25s-.38-2.77-.49-4a30.58,30.58,0,0,1-.17-3.13A15.65,15.65,0,0,1,4.45,13c.13-.29,1.24-.23,1.65.05a1.1,1.1,0,0,1,.39.41,2.2,2.2,0,0,1,.15.94s0,1.74,0,2.06.08.49.15.49a4,4,0,0,0,1-.71c.61-.47,1.34-1.07,2.19-1.79s1.78-1.53,2.78-2.41l2.88-2.56c.36-.33.85-.79,1.47-1.4S18.4,6.83,19,6.15s1.14-1.34,1.58-1.95a2.76,2.76,0,0,0,.66-1.4c0-.32-.1-.49-.29-.49a8.5,8.5,0,0,0-1.67.35c-.86.22-1.82.53-2.91.9S14.18,4.38,13,4.87a27.07,27.07,0,0,0-3,1.52C9.06,7,8.15,7.7,7.23,8.46S5.48,9.92,4.75,10.6,3.4,11.84,2.93,12.32a8.1,8.1,0,0,0-.77.81.28.28,0,0,0-.09.2.76.76,0,0,0,.07.27.67.67,0,0,1,.07.27c0,.09-.07.16-.19.24a2.16,2.16,0,0,1-1.5,0,1,1,0,0,1-.52-1,3.08,3.08,0,0,1,.79-1.72,17.27,17.27,0,0,1,2-2.21A32,32,0,0,1,5.61,6.81c1-.77,2-1.48,3-2.14a33.26,33.26,0,0,1,3.22-1.79,34.87,34.87,0,0,1,3.44-1.5,25.58,25.58,0,0,1,3.22-1A10.83,10.83,0,0,1,21,0a4.23,4.23,0,0,1,.88.1,4.27,4.27,0,0,1,.94.29,2.2,2.2,0,0,1,.73.52,1.07,1.07,0,0,1,.3.76,5.49,5.49,0,0,1-.79,2.73A16,16,0,0,1,21,7.23c-.86.95-1.82,1.91-2.88,2.87S16,12,14.92,12.91l-3.07,2.6c-1,.84-1.8,1.6-2.46,2.29l1.77-.66c.82-.31,1.71-.63,2.68-.94s1.94-.58,2.93-.81a11.54,11.54,0,0,1,2.6-.34c.23,0,.72,0,1.48,0a10.28,10.28,0,0,1,2.36.39,6.3,6.3,0,0,1,2.21,1.11A2.53,2.53,0,0,1,26.41,18.73Z"/><path class="cls-1" d="M35.31,29.31c0,.23-.18.42-.52.59a2.14,2.14,0,0,1-.76.24,1.08,1.08,0,0,1-.89-.64A7.73,7.73,0,0,1,32.45,28c-.19-.56-.36-1.09-.49-1.6s-.23-.86-.29-1.06-.23-.72-.4-1.18-.32-.9-.46-1.33-.27-.8-.37-1.13a4.13,4.13,0,0,1-.15-.54,3.06,3.06,0,0,1,.27-1.28c.18-.39.4-.59.66-.59s.61.23.94.69a10.25,10.25,0,0,1,1,1.75A23.44,23.44,0,0,1,34,24.07c.26.84.49,1.62.69,2.36s.35,1.38.46,1.92A7.59,7.59,0,0,1,35.31,29.31Z"/><path class="cls-1" d="M55.86,28.27a1,1,0,0,1-.08.53.86.86,0,0,1-.51.31c-.3.1-.66.2-1.11.32s-.92.23-1.45.34-1.06.22-1.6.3a10.28,10.28,0,0,1-1.5.12,17.82,17.82,0,0,1-1.84-.1,13.31,13.31,0,0,1-1.94-.32,14.54,14.54,0,0,1-1.7-.49,2.52,2.52,0,0,1-1.1-.66c.16.69.31,1.38.44,2.06s.23,1.38.29,2.07a.74.74,0,0,1-.12.42c-.08.11-.31.14-.66.17a1,1,0,0,1-.93-.65c-.29-.66-.45-1.26-.65-1.83s-.37-1.16-.51-1.75-.31-1.21-.47-1.87-.36-1.38-.59-2.16c-.36-1.28-.74-2.65-1.13-4.11s-.76-2.85-1.08-4.18-.59-2.51-.79-3.54a13.36,13.36,0,0,1-.3-2.19,4.82,4.82,0,0,1,.52-2.53.66.66,0,0,1,.58-.32c.29,0,.37.26.55.76a15.37,15.37,0,0,1,.49,1.68c.15.6.28,1.18.4,1.72s.17.82.17.86c.13.72.29,1.51.47,2.38s.37,1.75.56,2.63.41,1.73.64,2.53a13.94,13.94,0,0,0,.74,2.05A7.93,7.93,0,0,1,42,21.39a19.32,19.32,0,0,1,.79-2c.33-.72.7-1.46,1.11-2.23a19.25,19.25,0,0,1,1.27-2.09,9.54,9.54,0,0,1,1.33-1.53,2,2,0,0,1,1.26-.59,2.43,2.43,0,0,1,1.3.25.71.71,0,0,1,.37.59c0,.19-.28.58-.84,1.15a22.26,22.26,0,0,0-1.87,2.27,17.31,17.31,0,0,0-1.87,3.29A9.43,9.43,0,0,0,44,24.41a2.69,2.69,0,0,0,.55,1.83,3,3,0,0,0,1.14.9,7.2,7.2,0,0,0,1.73.62,8.25,8.25,0,0,0,1.89.22c.56,0,1.16,0,1.82-.05s1.27-.07,1.84-.12l1.48-.13.76-.05a.71.71,0,0,1,.44.15A.59.59,0,0,1,55.86,28.27Z"/><path class="cls-1" d="M80.69,22.67c-.26,0-.59.3-1,.91a16.61,16.61,0,0,1-1.6,2,11.53,11.53,0,0,1-2.51,2,6.9,6.9,0,0,1-3.66.91,5.21,5.21,0,0,1-2.75-.62,2.61,2.61,0,0,1-.28-.17s0,0,0-.05,0,0,0,0l0,0,0,0a6.48,6.48,0,0,1-1.27-1.4l0-.05a.21.21,0,0,1,0-.06,4.18,4.18,0,0,1-.69-2.25v0c0-3.09,1.07-8.25.26-8.4a.55.55,0,0,0-.63.22,1.62,1.62,0,0,0-1.82-.23,6.25,6.25,0,0,0-2.7,2,14.88,14.88,0,0,0-1.69,2.74A14.3,14.3,0,0,0,59,23.56a13.79,13.79,0,0,0-.24,2.65c0,.06,0,.34.1.83a10,10,0,0,0,.34,1.56,6.55,6.55,0,0,0,.67,1.47,1.27,1.27,0,0,0,1,.67c1.78.05,3.82-3.71,3.94-4.13a5.29,5.29,0,0,0,1.08,1.84,7.31,7.31,0,0,0,1.67,1.37,8.16,8.16,0,0,0,1.92.86,6.38,6.38,0,0,0,1.86.3,8.79,8.79,0,0,0,3.79-.86A13.61,13.61,0,0,0,78.33,28a12,12,0,0,0,2.19-2.53,4.46,4.46,0,0,0,.81-2.19A.57.57,0,0,0,80.69,22.67Zm-17,1.79a14.28,14.28,0,0,1-1.9,3.22,2.21,2.21,0,0,1-.45-1c-.13-.52-.6-3.08,1.57-6.45a7.12,7.12,0,0,1,2-2.05A21.36,21.36,0,0,1,63.71,24.46Z"/><path class="cls-1" d="M96.48,28.08a3.44,3.44,0,0,1-.47.54c-.7.62-2.43.47-3.3.22a4.71,4.71,0,0,1-2.09-1.16,8.71,8.71,0,0,1-1.47-2,23.24,23.24,0,0,1-1.43-3.42c-.36,1.45-.78,2.87-1.25,4.28s-2,4-2.58,4a1,1,0,0,1-.89-.7,35.32,35.32,0,0,1-.49-4.74c-.07-1-.12-2.08-.17-3.14s-.08-1.95-.08-2.64c0-.32.12-2.66.72-3.09a1.21,1.21,0,0,1,.71-.3c.23,0,.36.15.39.44a7.61,7.61,0,0,1,0,1s-.07,8.32.3,9.09a21.64,21.64,0,0,0,1-2.77c.31-1.07.61-2.08.91-3.05a22.39,22.39,0,0,1,.88-2.46c.3-.67.59-1,.89-1a1.63,1.63,0,0,1,.78.2c.59.29.79,2.58.89,3.32a18.24,18.24,0,0,0,.37,2,6.58,6.58,0,0,0,.64,1.65A5.14,5.14,0,0,0,92,25.72a4.49,4.49,0,0,0,1.55.93A4.62,4.62,0,0,0,95,27a1.74,1.74,0,0,0,.64-.13,1.74,1.74,0,0,1,.49-.12c.13,0,.25.12.37.34A1.12,1.12,0,0,1,96.48,28.08Z"/><path class="cls-1" d="M127.76,10.52c-.43,2.26-.82,4.45-1.18,6.54-.16.89-.33,1.81-.49,2.78s-.32,1.92-.47,2.85-.28,1.82-.39,2.66S125,27,125,27.63c-.13,1.05-.23,2.25-.3,3.59s-.13,2.63-.19,3.84c-.07,1.41-.1,2.83-.1,4.28,0,.29.2,3.51-1.08,3.24a.8.8,0,0,1-.62-.61,9,9,0,0,1-.37-1.43,12.77,12.77,0,0,1-.19-1.62c0-.54,0-.93,0-1.16v-.95c0-.38,0-.94.07-1.68s.12-1.7.22-2.9.25-2.76.44-4.69a3.1,3.1,0,0,0-.66-.5l-1.62-1.1c-.64-.44-1.29-.93-2-1.45-1.57-1.2-2.16-2.67-1.9-3.19a.54.54,0,0,1,.89-.21c.76.66,1.62,1.39,2.61,2.19s2,1.54,2.9,2.19c.07-.59.2-1.49.42-2.7s.43-2.52.66-3.91.45-2.75.67-4.06a29.13,29.13,0,0,1,1.3-5.43.92.92,0,0,1,1.69.28A2.88,2.88,0,0,1,127.76,10.52Z"/><path class="cls-1" d="M32.57,13.58c.11.5-.38,1.36-1.67,1.9a3.27,3.27,0,0,1-2.07.19,1.66,1.66,0,0,1-1.06-1.26c-.13-.77.54-1.7,1.88-1.77C31.38,12.54,32.4,12.82,32.57,13.58Z"/><path class="cls-1" d="M115.06,25.64a1.1,1.1,0,0,1-.07.52.88.88,0,0,1-.52.32c-.29.1-.66.2-1.1.32s-.93.23-1.45.34-1.06.22-1.6.3a10.28,10.28,0,0,1-1.5.12,17.86,17.86,0,0,1-1.85-.1,13.31,13.31,0,0,1-1.94-.32,15.13,15.13,0,0,1-1.7-.49,2.65,2.65,0,0,1-1.1-.66c.16.69.31,1.37.44,2.06s.23,1.38.3,2.07a.75.75,0,0,1-.13.42c-.08.11-.3.13-.66.17a1,1,0,0,1-.92-.65,16.45,16.45,0,0,1-.65-1.84c-.2-.57-.37-1.15-.52-1.74s-.3-1.21-.47-1.87-.36-1.38-.59-2.16c-.36-1.28-.74-2.65-1.13-4.11s-.75-2.85-1.08-4.18-.59-2.51-.79-3.54a14.21,14.21,0,0,1-.29-2.19,4.92,4.92,0,0,1,.51-2.53.67.67,0,0,1,.58-.32c.29,0,.37.25.55.76s.35,1.07.5,1.67.27,1.18.39,1.73.17.82.17.86c.13.72.29,1.51.47,2.38s.37,1.75.56,2.63.41,1.73.64,2.53a13.37,13.37,0,0,0,.74,2,7.44,7.44,0,0,1,.35-1.42,16.5,16.5,0,0,1,.78-2c.33-.72.7-1.46,1.11-2.23a17.81,17.81,0,0,1,1.28-2.09,8.67,8.67,0,0,1,1.32-1.53A2,2,0,0,1,107,10.3a2.4,2.4,0,0,1,1.3.25.69.69,0,0,1,.37.59c0,.19-.28.58-.84,1.15a23.23,23.23,0,0,0-1.86,2.26,17.18,17.18,0,0,0-1.87,3.3,9.43,9.43,0,0,0-.84,3.93,2.7,2.7,0,0,0,.55,1.82,3,3,0,0,0,1.15.91,7.57,7.57,0,0,0,1.72.62,8.85,8.85,0,0,0,1.89.22c.56,0,1.17,0,1.82-.05s1.27-.08,1.85-.12l1.47-.13.76-.05a.74.74,0,0,1,.45.15A.57.57,0,0,1,115.06,25.64Z"/><path class="cls-1" d="M34.86,45a2.74,2.74,0,0,1,1.67.51A2.58,2.58,0,0,1,37.47,47l-.22.07.09-.29a2.53,2.53,0,0,1,.69-.88,3.9,3.9,0,0,1,1.09-.67A3.19,3.19,0,0,1,40.36,45a2.72,2.72,0,0,1,1.59.42,2.39,2.39,0,0,1,.88,1.14,4.53,4.53,0,0,1,.27,1.61v4.44a.48.48,0,0,1-.13.33.46.46,0,0,1-.34.14.44.44,0,0,1-.34-.14.48.48,0,0,1-.13-.33V48.22A3.4,3.4,0,0,0,42,47a1.79,1.79,0,0,0-.65-.85,2,2,0,0,0-1.17-.31,2.54,2.54,0,0,0-1.24.31A2.6,2.6,0,0,0,38,47a2,2,0,0,0-.37,1.18v4.39a.53.53,0,0,1-.13.33.48.48,0,0,1-.34.14.46.46,0,0,1-.34-.14.48.48,0,0,1-.13-.33V48.17A3.19,3.19,0,0,0,36.45,47a1.82,1.82,0,0,0-.61-.83,1.89,1.89,0,0,0-1.15-.31,2.45,2.45,0,0,0-1.21.31,2.67,2.67,0,0,0-.93.83,1.93,1.93,0,0,0-.35,1.15v4.44a.49.49,0,0,1-.83.33.48.48,0,0,1-.13-.33v-7a.45.45,0,0,1,.14-.33.46.46,0,0,1,.35-.14.42.42,0,0,1,.33.14.45.45,0,0,1,.14.33V47l-.43.58a2.48,2.48,0,0,1,.31-.94,3.07,3.07,0,0,1,.68-.85,3.43,3.43,0,0,1,1-.6A2.75,2.75,0,0,1,34.86,45Z"/><path class="cls-1" d="M53.29,49.06a4.33,4.33,0,0,1-.53,2.14,3.94,3.94,0,0,1-1.42,1.5,4,4,0,0,1-4,0,4,4,0,0,1-1.43-1.5,4.68,4.68,0,0,1,0-4.29,4,4,0,0,1,1.43-1.49,4,4,0,0,1,4,0,4,4,0,0,1,1.42,1.49A4.36,4.36,0,0,1,53.29,49.06Zm-1,0a3.61,3.61,0,0,0-.39-1.7,2.91,2.91,0,0,0-1.08-1.17,2.87,2.87,0,0,0-1.54-.42,2.91,2.91,0,0,0-1.55.42,3.05,3.05,0,0,0-1.08,1.17,3.81,3.81,0,0,0,0,3.4,3.2,3.2,0,0,0,1.08,1.17,2.91,2.91,0,0,0,1.55.43,2.88,2.88,0,0,0,1.54-.43,3,3,0,0,0,1.08-1.17A3.58,3.58,0,0,0,52.33,49.06Z"/><path class="cls-1" d="M59.31,44.87a2.92,2.92,0,0,1,1.66.42,2.32,2.32,0,0,1,.89,1.13A4.19,4.19,0,0,1,62.14,48v4.61a.49.49,0,0,1-.83.33.53.53,0,0,1-.13-.33V48A3.17,3.17,0,0,0,61,46.9a1.8,1.8,0,0,0-.66-.83,2.19,2.19,0,0,0-1.21-.3,2.83,2.83,0,0,0-1.28.3,2.74,2.74,0,0,0-1,.83A1.88,1.88,0,0,0,56.47,48v4.57a.45.45,0,0,1-.14.33.45.45,0,0,1-.33.14.48.48,0,0,1-.35-.14.48.48,0,0,1-.13-.33v-7a.42.42,0,0,1,.14-.33.44.44,0,0,1,.34-.14.42.42,0,0,1,.34.14.44.44,0,0,1,.13.33V46.9l-.36.56a2.07,2.07,0,0,1,.32-1,3.47,3.47,0,0,1,.75-.83,3.77,3.77,0,0,1,1-.59A3.17,3.17,0,0,1,59.31,44.87Z"/><path class="cls-1" d="M64.4,45.09h3.65a.43.43,0,0,1,.32.14.45.45,0,0,1,.12.32.43.43,0,0,1-.12.31.46.46,0,0,1-.32.13H64.4a.48.48,0,0,1-.46-.46.46.46,0,0,1,.46-.44ZM66,42.88a.46.46,0,0,1,.47.47v7.88a1.44,1.44,0,0,0,.12.66.62.62,0,0,0,.31.29,1.22,1.22,0,0,0,.38.07.78.78,0,0,0,.22,0,.59.59,0,0,1,.23,0,.32.32,0,0,1,.24.11.39.39,0,0,1,.11.28.43.43,0,0,1-.26.37,1.1,1.1,0,0,1-.59.15l-.43,0a1.75,1.75,0,0,1-.58-.18,1.2,1.2,0,0,1-.5-.52,2.39,2.39,0,0,1-.2-1.08V43.35a.43.43,0,0,1,.14-.33A.48.48,0,0,1,66,42.88Z"/><path class="cls-1" d="M71,53.08a.47.47,0,0,1-.35-.14.49.49,0,0,1-.14-.33v-7a.45.45,0,0,1,.14-.33.46.46,0,0,1,.35-.14.42.42,0,0,1,.34.14.44.44,0,0,1,.13.33v2.35l-.23,0a3.56,3.56,0,0,1,.27-1.09,3.87,3.87,0,0,1,.62-1,3.2,3.2,0,0,1,.93-.74,2.71,2.71,0,0,1,1.22-.28,1.33,1.33,0,0,1,.55.12.4.4,0,0,1,.27.38.54.54,0,0,1-.13.37.41.41,0,0,1-.3.12.61.61,0,0,1-.3-.08A1.08,1.08,0,0,0,74,45.7a1.72,1.72,0,0,0-.87.26,3.1,3.1,0,0,0-.8.7,3.34,3.34,0,0,0-.58,1,3,3,0,0,0-.21,1.09v3.88a.49.49,0,0,1-.14.33A.45.45,0,0,1,71,53.08Z"/><path class="cls-1" d="M80.12,53.24A4.35,4.35,0,0,1,78,52.72a3.83,3.83,0,0,1-1.44-1.44A4.43,4.43,0,0,1,76,49.11a4.63,4.63,0,0,1,.52-2.28,3.91,3.91,0,0,1,1.37-1.45,3.37,3.37,0,0,1,1.78-.51,3.62,3.62,0,0,1,1.34.25,3.29,3.29,0,0,1,1.15.72A3.68,3.68,0,0,1,83,47a4,4,0,0,1,.33,1.6.45.45,0,0,1-.14.32.48.48,0,0,1-.33.13H76.58l-.19-.84h6.16l-.2.18v-.31a2.27,2.27,0,0,0-.47-1.25,2.74,2.74,0,0,0-1-.78,2.64,2.64,0,0,0-1.2-.28,2.83,2.83,0,0,0-1,.19,2.56,2.56,0,0,0-.89.59,2.93,2.93,0,0,0-.65,1,3.83,3.83,0,0,0-.25,1.47,3.76,3.76,0,0,0,.37,1.68,2.85,2.85,0,0,0,1.09,1.19,3.2,3.2,0,0,0,1.71.44,2.74,2.74,0,0,0,1-.16,2.9,2.9,0,0,0,.78-.41,3.17,3.17,0,0,0,.55-.55.53.53,0,0,1,.33-.14.36.36,0,0,1,.29.13.39.39,0,0,1,.12.28.41.41,0,0,1-.16.33,4.17,4.17,0,0,1-1.22,1A3.32,3.32,0,0,1,80.12,53.24Zm-.56-8.81a.27.27,0,0,1-.18-.08.31.31,0,0,1-.07-.2.46.46,0,0,1,.07-.22l1-1.49a1.13,1.13,0,0,1,.21-.24.45.45,0,0,1,.31-.1.57.57,0,0,1,.39.12.4.4,0,0,1,.13.36.65.65,0,0,1,0,.2.61.61,0,0,1-.12.16L80,44.18a.55.55,0,0,1-.22.18A.48.48,0,0,1,79.56,44.43Z"/><path class="cls-1" d="M92.17,45.06a.46.46,0,0,1,.34.14.49.49,0,0,1,.13.35v7.06a.45.45,0,0,1-.14.33.45.45,0,0,1-.33.14.48.48,0,0,1-.35-.14.48.48,0,0,1-.13-.33V50.74l.28-.11a2,2,0,0,1-.24.89,3.35,3.35,0,0,1-.67.85,3.45,3.45,0,0,1-1,.62,3,3,0,0,1-1.24.25,3.44,3.44,0,0,1-1.9-.55,3.86,3.86,0,0,1-1.31-1.51,5.08,5.08,0,0,1,0-4.31,3.81,3.81,0,0,1,1.32-1.46,3.38,3.38,0,0,1,1.87-.54,3.41,3.41,0,0,1,2.29.88,2.87,2.87,0,0,1,.68.94A2.45,2.45,0,0,1,92,47.78l-.33-.24v-2a.49.49,0,0,1,.13-.35A.48.48,0,0,1,92.17,45.06Zm-3.26,7.3a2.67,2.67,0,0,0,1.48-.43,3.07,3.07,0,0,0,1-1.2,3.89,3.89,0,0,0,.37-1.7,3.71,3.71,0,0,0-.37-1.65,3.07,3.07,0,0,0-1-1.18,2.6,2.6,0,0,0-1.48-.43,2.76,2.76,0,0,0-1.47.41,3,3,0,0,0-1,1.16,4.07,4.07,0,0,0,0,3.39,2.84,2.84,0,0,0,1,1.2A2.67,2.67,0,0,0,88.91,52.36Z"/><path class="cls-1" d="M96.46,52.61a.48.48,0,0,1-.47.47.46.46,0,0,1-.34-.14.48.48,0,0,1-.13-.33V41.94a.48.48,0,0,1,.47-.47.4.4,0,0,1,.33.14.45.45,0,0,1,.14.33Z"/></g></g></svg>