<svg xmlns="http://www.w3.org/2000/svg" viewBox="0 0 46.86 53.21"><defs><style>.cls-1{fill:#e2e2e2;}.cls-2{fill:#efcb1d;}</style></defs><title>bikankyLogoHeader</title><g id="Layer_2" data-name="Layer 2"><g id="Layer_10" data-name="Layer 10"><circle class="cls-1" cx="23.43" cy="29.78" r="23.43"/><path class="cls-2" d="M43.17,26.6a8.24,8.24,0,0,1-.83,3.56,16.3,16.3,0,0,1-2.1,3.28,24.29,24.29,0,0,1-2.72,2.83c-1,.86-1.86,1.59-2.65,2.2s-1.82,1.35-2.94,2.09-2.16,1.51-3.24,2.1a31.79,31.79,0,0,0-6.25,4.46,1.52,1.52,0,0,1-2.58-1.18c0-1,3.18-3.75,5.23-4.89,1-.55,2.42-1.33,4.19-2.44.88-.56,2-1.29,3.21-2.2a37.46,37.46,0,0,0,3.56-2.93,20.18,20.18,0,0,0,2.86-3.29,5.77,5.77,0,0,0,1.19-3.31q0-.63-1.5-1.29a10.59,10.59,0,0,0-4.22-.67,22.24,22.24,0,0,0-5.87.84c-2.05.56-3.94,1.17-5.69,1.82s-3.24,1.25-4.5,1.81a9.5,9.5,0,0,1-2.3.84,34.77,34.77,0,0,0,.44,4c.81,5.6,2.79,13.16,2.77,13.79s-.28,1.12-.84,1.12c-.28,0-.59-.26-.94-.77a9.82,9.82,0,0,1-1.05-1.81,55.92,55.92,0,0,1-2.65-8.8c-.4-2-.75-4-1.05-6S12.16,27.8,12,26s-.26-3.27-.24-4.44a21.75,21.75,0,0,1,.24-3.1c.18-.41,1.76-.33,2.34.07a1.45,1.45,0,0,1,.56.59,3.11,3.11,0,0,1,.21,1.32s0,2.47,0,2.94.11.7.21.7a5.87,5.87,0,0,0,1.5-1c.86-.67,1.89-1.52,3.1-2.55s2.53-2.16,3.95-3.42,2.78-2.46,4.08-3.63c.51-.46,1.21-1.12,2.1-2S31.8,9.7,32.67,8.73,34.27,6.83,34.9,6a3.94,3.94,0,0,0,.94-2c0-.47-.14-.7-.42-.7a11.82,11.82,0,0,0-2.37.49c-1.21.33-2.58.76-4.12,1.29s-3.12,1.15-4.75,1.85a36.15,36.15,0,0,0-4.32,2.17Q17.9,10.4,16,12c-1.31,1.07-2.48,2.08-3.53,3s-1.91,1.77-2.58,2.45a12,12,0,0,0-1.09,1.15.42.42,0,0,0-.14.28,1.07,1.07,0,0,0,.11.38,1.05,1.05,0,0,1,.1.39c0,.14-.1.23-.28.35A3.06,3.06,0,0,1,6.42,20a1.37,1.37,0,0,1-.74-1.4A4.44,4.44,0,0,1,6.8,16.13,25,25,0,0,1,9.7,13a46.46,46.46,0,0,1,3.94-3.32c1.44-1.09,2.86-2.11,4.26-3s2.92-1.73,4.57-2.55S25.75,2.56,27.36,2A40.67,40.67,0,0,1,31.93.52,15.67,15.67,0,0,1,35.49,0a6.73,6.73,0,0,1,1.26.14,6.06,6.06,0,0,1,1.33.42,3,3,0,0,1,1,.73,1.53,1.53,0,0,1,.42,1.08,8,8,0,0,1-1.11,3.88,23.35,23.35,0,0,1-2.94,4q-1.82,2-4.08,4.09c-1.51,1.37-3,2.7-4.54,4s-3,2.51-4.36,3.7A43.43,43.43,0,0,0,19,25.27c.51-.18,1.35-.5,2.51-.94S24,23.45,25.34,23s2.75-.82,4.15-1.15a16.91,16.91,0,0,1,3.7-.49c.32,0,1,0,2.09.07a15.33,15.33,0,0,1,3.35.56,9.14,9.14,0,0,1,3.15,1.57A3.63,3.63,0,0,1,43.17,26.6Z"/></g></g></svg>