<svg xmlns="http://www.w3.org/2000/svg" viewBox="0 0 30.76 34.74"><defs><style>.cls-1{fill:#171716;}.cls-2{fill:#d8d8d8;}</style></defs><title>testLogo</title><g id="Layer_6" data-name="Layer 6"><circle class="cls-1" cx="15.38" cy="19.36" r="15.38"/><path class="cls-2" d="M27,16.44a5.11,5.11,0,0,1-.52,2.2,10.14,10.14,0,0,1-1.3,2,14.64,14.64,0,0,1-1.68,1.75c-.6.53-1.15,1-1.64,1.36s-1.12.83-1.81,1.29-1.34.93-2,1.3a19.68,19.68,0,0,0-3.86,2.76,1,1,0,0,1-1.6-.73c0-.6,2-2.32,3.24-3,.62-.35,1.49-.82,2.59-1.51.54-.35,1.21-.8,2-1.36a21.47,21.47,0,0,0,2.2-1.82,12.69,12.69,0,0,0,1.77-2,3.63,3.63,0,0,0,.74-2.05c0-.26-.31-.53-.93-.8a6.53,6.53,0,0,0-2.61-.41,14,14,0,0,0-3.63.51c-1.26.35-2.44.72-3.51,1.13s-2,.77-2.79,1.12a6,6,0,0,1-1.42.52,22.62,22.62,0,0,0,.27,2.48c.51,3.46,1.73,8.13,1.71,8.52s-.17.69-.51.69c-.18,0-.37-.16-.59-.47a6.48,6.48,0,0,1-.64-1.12,34,34,0,0,1-1.64-5.44c-.25-1.24-.46-2.48-.65-3.74s-.33-2.43-.43-3.53-.16-2-.15-2.74a11.94,11.94,0,0,1,.15-1.93c.11-.24,1.08-.19,1.44.05a.93.93,0,0,1,.35.36,2.08,2.08,0,0,1,.13.82s0,1.53,0,1.82.07.43.13.43a3.76,3.76,0,0,0,.92-.63c.54-.41,1.18-.94,1.93-1.57s1.56-1.34,2.43-2.12l2.53-2.24c.31-.29.75-.7,1.29-1.23S19.94,6,20.47,5.39s1-1.17,1.38-1.7a2.4,2.4,0,0,0,.58-1.23c0-.29-.08-.43-.25-.43a7.56,7.56,0,0,0-1.47.3c-.75.2-1.6.47-2.55.8s-1.93.71-2.93,1.14a23,23,0,0,0-2.68,1.34c-.8.55-1.61,1.15-2.41,1.81S8.6,8.71,8,9.3s-1.18,1.09-1.6,1.51a8.88,8.88,0,0,0-.67.71.26.26,0,0,0-.09.18.79.79,0,0,0,.07.23.69.69,0,0,1,.06.24c0,.09-.06.14-.17.22a1.92,1.92,0,0,1-1.31,0,.85.85,0,0,1-.46-.87A2.73,2.73,0,0,1,4.48,10,16.06,16.06,0,0,1,6.27,8,30.28,30.28,0,0,1,8.71,6c.89-.68,1.77-1.3,2.63-1.88a32.41,32.41,0,0,1,2.83-1.58c1-.5,2-.94,3-1.31A23.91,23.91,0,0,1,20,.32,10,10,0,0,1,22.22,0,3.89,3.89,0,0,1,23,.09a3.4,3.4,0,0,1,.82.26,1.85,1.85,0,0,1,.64.45.93.93,0,0,1,.26.67A4.89,4.89,0,0,1,24,3.86a13.78,13.78,0,0,1-1.81,2.48,33.52,33.52,0,0,1-2.53,2.53c-.93.85-1.87,1.67-2.8,2.46l-2.7,2.29c-.86.73-1.58,1.4-2.16,2L13.59,15c.72-.27,1.5-.55,2.35-.82s1.7-.51,2.57-.71a10.21,10.21,0,0,1,2.28-.3l1.3,0a9.3,9.3,0,0,1,2.07.34,5.64,5.64,0,0,1,1.94,1A2.22,2.22,0,0,1,27,16.44Z"/></g></svg>